<?xml version="1.0" standalone="no"?>
<!DOCTYPE svg PUBLIC "-//W3C//DTD SVG 20010904//EN"
 "http://www.w3.org/TR/2001/REC-SVG-20010904/DTD/svg10.dtd">
<svg version="1.0" xmlns="http://www.w3.org/2000/svg"
 width="1200.000000pt" height="1200.000000pt" viewBox="0 0 1200.000000 1200.000000"
 preserveAspectRatio="xMidYMid meet">
<metadata>
Created by potrace 1.14, written by Peter Selinger 2001-2017
</metadata>
<g transform="translate(0.000000,1200.000000) scale(0.100000,-0.100000)"
fill="#000000" stroke="none">
<path d="M5615 10239 c-49 -5 -139 -18 -200 -29 -477 -90 -876 -264 -1255
-548 -137 -102 -414 -374 -527 -518 -145 -184 -294 -431 -375 -624 -20 -47
-44 -103 -53 -125 -28 -65 -83 -242 -110 -351 -66 -267 -90 -504 -81 -789 9
-300 53 -549 145 -825 92 -274 184 -462 347 -705 118 -178 226 -306 395 -470
444 -430 960 -685 1592 -787 125 -20 176 -23 432 -22 254 0 307 3 425 23 262
44 438 92 640 173 390 157 692 359 996 663 458 461 734 1029 820 1690 23 176
23 524 0 700 -87 670 -363 1233 -836 1705 -243 242 -447 391 -740 539 -322
163 -691 271 -1027 300 -139 13 -456 12 -588 0z m530 -129 c745 -61 1454 -435
1924 -1013 175 -216 358 -539 457 -807 209 -571 219 -1245 26 -1810 -224 -657
-636 -1169 -1218 -1518 -308 -184 -647 -304 -1024 -363 -209 -33 -571 -33
-780 0 -521 81 -958 273 -1370 602 -289 231 -555 568 -729 923 -94 190 -135
298 -190 500 -147 536 -119 1155 76 1686 92 251 275 568 463 800 237 293 534
531 886 709 456 231 973 332 1479 291z"/>
<path d="M7484 8940 c-182 -36 -500 -122 -540 -145 -51 -30 -106 -84 -206
-201 l-77 -91 42 -19 c104 -47 376 -275 498 -419 53 -62 79 -85 96 -85 13 0
65 -16 114 -35 50 -19 103 -35 118 -35 35 0 131 62 193 124 59 59 68 96 38
157 -18 35 -22 57 -20 119 5 153 1 164 -94 314 -31 50 -56 98 -56 109 0 10 13
37 29 60 41 61 83 146 76 157 -9 15 -110 10 -211 -10z"/>
<path d="M6335 8294 c-353 -143 -665 -261 -763 -289 -277 -77 -479 -192 -644
-364 -104 -108 -152 -175 -214 -300 -52 -106 -87 -212 -117 -350 -19 -94 -22
-135 -22 -361 0 -318 17 -443 80 -592 7 -17 4 -17 -36 -3 -69 25 -123 61 -172
115 -83 93 -113 213 -104 419 8 153 18 226 83 555 73 372 86 513 63 656 -19
118 -69 202 -163 271 -54 40 -123 41 -167 1 -59 -53 -48 -161 22 -200 48 -28
69 -93 69 -214 0 -114 -6 -152 -79 -543 -76 -410 -90 -547 -71 -700 24 -200
71 -314 176 -425 101 -107 196 -162 344 -198 151 -38 233 -41 929 -42 606 0
684 1 721 16 55 22 80 60 80 121 0 69 -15 80 -121 85 -59 3 -95 10 -113 21
l-26 17 0 224 c0 123 -5 248 -10 277 -28 150 -149 308 -289 377 -71 35 -80 37
-171 37 -88 0 -100 -3 -164 -35 -116 -58 -222 -178 -273 -311 -13 -35 -18 -94
-22 -292 -6 -246 -6 -249 -30 -268 -31 -25 -47 -24 -76 6 l-25 24 0 220 c0
240 10 313 56 423 99 238 302 388 523 388 209 0 386 -116 502 -327 15 -27 23
-31 102 -42 46 -6 108 -18 136 -27 79 -23 101 -74 167 -401 72 -348 92 -412
147 -457 72 -58 116 -71 252 -71 134 0 166 11 186 63 14 37 -4 95 -38 122 -22
17 -35 19 -70 14 -32 -5 -50 -2 -69 11 -36 23 -70 104 -89 210 -21 117 -41
682 -26 740 6 22 89 236 186 475 97 239 179 445 182 458 18 76 -512 554 -613
552 -10 -1 -113 -39 -229 -86z"/>
<path d="M6306 3879 c-22 -5 -41 -10 -42 -12 -2 -2 -78 -354 -159 -742 -25
-121 -48 -228 -51 -237 -5 -16 2 -18 55 -18 34 0 61 2 61 5 0 40 68 311 87
346 46 86 191 209 245 209 10 0 27 -9 39 -21 25 -25 26 -19 -36 -318 -25 -117
-45 -215 -45 -217 0 -2 26 -4 58 -4 l58 0 48 224 c57 272 62 312 46 360 -36
111 -211 100 -340 -20 -27 -26 -50 -44 -50 -41 0 3 23 112 50 241 28 130 50
240 50 246 0 12 -20 12 -74 -1z"/>
<path d="M3430 3816 c-208 -58 -371 -237 -416 -456 -48 -238 57 -438 260 -496
94 -26 238 -16 341 25 44 17 91 40 105 50 l25 20 -22 44 -22 45 -78 -39 c-235
-120 -444 -42 -483 179 -36 197 98 444 277 512 110 42 249 34 341 -20 18 -11
37 -20 43 -20 9 0 69 78 69 90 0 11 -108 57 -160 69 -61 14 -224 12 -280 -3z"/>
<path d="M5695 3816 c-64 -20 -99 -42 -139 -86 -50 -56 -66 -97 -66 -170 0
-102 46 -163 204 -271 122 -83 156 -151 117 -232 -31 -64 -95 -97 -189 -97
-74 0 -169 27 -192 55 -22 27 -39 16 -55 -37 -8 -28 -14 -52 -12 -53 94 -60
166 -78 281 -73 74 3 101 9 146 32 114 57 165 139 158 256 -5 102 -37 146
-171 238 -131 90 -161 126 -161 191 0 60 31 106 88 132 57 26 174 25 250 -1
l57 -19 9 25 c6 14 11 40 13 57 2 31 1 32 -63 49 -77 20 -219 22 -275 4z"/>
<path d="M4768 3668 l-47 -10 -11 -56 c-14 -77 -20 -84 -73 -101 -45 -14 -57
-29 -49 -63 3 -14 13 -18 43 -18 21 0 39 -2 39 -5 0 -3 -18 -90 -41 -193 -47
-215 -51 -281 -22 -320 29 -39 60 -52 128 -52 48 0 73 7 125 33 70 35 75 47
51 109 l-10 27 -52 -35 c-40 -27 -61 -34 -88 -32 -60 5 -61 26 -11 262 l43
205 96 3 95 3 8 34 c15 56 8 61 -87 61 -74 0 -85 2 -85 18 0 17 16 90 26 125
6 19 -5 20 -78 5z"/>
<path d="M4170 3521 c-131 -43 -236 -159 -286 -316 -66 -207 -12 -355 131
-355 65 0 140 36 193 94 l39 43 2 -49 c1 -67 16 -92 49 -85 15 3 40 10 55 16
24 9 27 15 20 34 -16 44 -3 156 45 377 27 124 46 228 42 233 -9 11 -260 18
-290 8z m157 -95 c9 -8 -39 -202 -62 -254 -52 -113 -163 -222 -227 -222 -24 0
-32 6 -44 35 -52 125 53 365 189 435 32 16 53 20 91 16 27 -3 51 -7 53 -10z"/>
<path d="M7015 3502 c-140 -69 -229 -218 -228 -383 1 -168 92 -268 244 -269
101 0 153 22 230 99 175 175 187 445 24 546 -42 26 -60 30 -129 33 -73 3 -87
0 -141 -26z m194 -87 c42 -21 61 -71 61 -159 0 -173 -99 -306 -229 -306 -44 0
-57 4 -81 28 -38 38 -54 101 -47 184 9 110 69 209 152 252 38 20 107 20 144 1z"/>
<path d="M8645 3511 c-74 -34 -115 -95 -115 -172 0 -57 22 -101 71 -146 118
-106 129 -119 129 -157 0 -26 -7 -44 -25 -61 -34 -35 -122 -35 -191 0 -27 14
-50 25 -50 25 -1 0 -7 -21 -13 -46 -14 -57 -8 -67 61 -90 65 -21 178 -16 232
11 61 31 98 84 104 149 6 79 -11 119 -75 174 -115 97 -123 107 -123 150 0 32
6 45 26 61 33 26 117 28 171 6 19 -8 39 -15 43 -15 3 0 12 21 17 47 9 36 8 50
0 55 -50 33 -200 38 -262 9z"/>
<path d="M7540 3468 c0 -104 45 -499 67 -585 5 -21 11 -23 62 -23 l57 0 57 98
c32 53 81 143 110 199 29 57 55 103 60 103 4 0 7 -16 7 -35 0 -37 37 -318 46
-347 4 -15 17 -18 62 -18 l57 0 70 118 c78 130 265 497 265 519 0 11 -14 13
-61 11 l-61 -3 -32 -80 c-33 -82 -147 -310 -189 -379 l-24 -39 -7 54 c-16 134
-26 262 -26 352 l0 98 -61 -3 -61 -3 -52 -120 c-81 -185 -178 -370 -186 -354
-8 14 -24 185 -36 377 l-6 102 -59 0 -59 0 0 -42z"/>
<path d="M2756 2441 c-3 -4 -19 -109 -35 -232 -17 -123 -37 -271 -46 -328 -9
-58 -13 -111 -11 -118 3 -8 23 -13 50 -13 50 0 49 -2 65 122 l6 53 50 0 50 0
7 -75 c5 -41 10 -81 13 -87 5 -15 91 -18 99 -5 4 7 -84 601 -99 670 -5 20 -11
22 -75 22 -38 0 -71 -4 -74 -9z m108 -383 c6 -38 6 -38 -29 -38 -41 0 -40 -2
-24 134 15 128 21 133 35 31 7 -49 15 -107 18 -127z"/>
<path d="M3050 2150 c0 -324 1 -329 54 -379 20 -19 40 -26 85 -29 70 -5 110
12 140 62 21 33 21 44 19 337 l-3 304 -46 3 -46 3 -7 -223 c-3 -123 -4 -250 0
-283 7 -74 -6 -115 -38 -115 -53 1 -53 -2 -55 302 -1 156 -2 291 -2 301 -1 14
-10 17 -51 17 l-50 0 0 -300z"/>
<path d="M3474 2431 c-37 -22 -64 -76 -64 -125 0 -54 30 -120 109 -241 81
-125 100 -172 83 -210 -21 -47 -82 -27 -82 26 0 51 -8 59 -61 59 l-49 0 0 -48
c0 -93 59 -152 152 -152 62 0 88 11 118 51 20 28 25 45 24 94 0 67 -22 119
-104 240 -59 87 -90 148 -90 175 0 34 19 60 44 60 30 0 44 -17 48 -60 3 -35 3
-35 53 -35 l50 0 -2 47 c-1 56 -31 109 -68 126 -40 19 -125 15 -161 -7z"/>
<path d="M3737 2443 c-10 -9 -8 -56 3 -73 6 -9 22 -13 48 -11 26 1 41 -2 44
-11 2 -7 5 -143 7 -303 2 -160 7 -293 12 -296 5 -3 28 -3 52 0 l42 6 -1 303 0
302 43 0 c48 0 69 24 59 66 l-6 24 -149 0 c-81 0 -151 -3 -154 -7z"/>
<path d="M4088 2333 c-3 -202 2 -574 8 -584 8 -14 94 -11 95 4 0 6 0 73 -1
147 -1 74 1 132 5 129 3 -3 26 -64 51 -135 25 -71 50 -135 57 -142 11 -14 90
-12 104 2 4 3 -19 70 -50 148 l-56 141 34 38 c43 48 50 73 50 179 -1 156 -36
190 -194 190 l-101 0 -2 -117z m182 1 c14 -36 13 -167 -2 -182 -7 -7 -27 -12
-45 -12 l-33 0 0 110 0 110 35 0 c29 0 37 -5 45 -26z"/>
<path d="M4520 2443 c0 -14 -61 -443 -75 -528 -8 -49 -16 -106 -17 -125 l-3
-35 50 0 50 0 6 53 c15 123 15 122 63 122 l43 0 14 -87 14 -88 39 -3 c66 -6
65 -11 40 174 -13 93 -33 242 -44 332 -12 90 -24 170 -27 178 -4 10 -24 14
-79 14 -41 0 -74 -3 -74 -7z m94 -273 c4 -41 9 -92 13 -112 l6 -38 -37 0 c-33
0 -36 2 -31 23 4 18 24 198 25 224 0 4 4 1 9 -7 5 -8 11 -49 15 -90z"/>
<path d="M4815 2437 c-3 -6 -4 -163 -3 -347 l3 -335 128 -3 127 -3 0 46 0 45
-75 0 -75 0 0 283 c0 155 -3 292 -6 305 -5 19 -13 22 -50 22 -27 0 -47 -5 -49
-13z"/>
<path d="M5125 2438 c-3 -7 -4 -166 -2 -353 l2 -340 45 0 45 0 7 114 c3 63 6
220 5 350 l-2 236 -48 3 c-32 2 -49 -1 -52 -10z"/>
<path d="M5366 2423 c-3 -16 -15 -95 -26 -178 -11 -82 -22 -157 -25 -165 -2
-8 -6 -40 -9 -71 -3 -31 -10 -76 -15 -100 -5 -24 -11 -69 -13 -99 l-3 -55 47
-3 47 -3 7 48 c19 138 14 128 67 131 45 3 47 2 47 -24 0 -15 5 -56 11 -91 l11
-63 49 0 c42 0 49 3 49 20 0 10 -13 115 -29 232 -16 117 -35 258 -42 313 -16
136 -15 135 -99 135 -67 0 -69 -1 -74 -27z m93 -253 c7 -58 15 -115 18 -127 5
-21 1 -23 -32 -23 l-37 0 8 53 c4 28 8 66 9 82 4 43 17 126 20 123 1 -2 8 -50
14 -108z"/>
<path d="M5654 2118 c4 -183 10 -341 12 -351 5 -14 14 -17 47 -15 l42 3 -2
235 c-2 268 -9 273 75 -50 l48 -185 55 0 54 0 -3 340 c-2 187 -7 344 -12 348
-4 5 -25 7 -46 5 l-39 -3 -5 -189 -5 -189 -39 159 c-62 254 -46 224 -123 224
l-66 0 7 -332z"/>
<path d="M6293 2430 c-57 -35 -64 -61 -70 -277 -7 -262 -1 -315 42 -361 30
-34 38 -36 101 -40 59 -3 73 -1 97 18 32 25 61 76 54 95 -3 7 -1 17 5 23 6 6
8 22 4 37 -6 24 -10 26 -54 23 -47 -3 -47 -3 -47 -40 -1 -43 -19 -68 -50 -68
-42 0 -45 15 -45 260 -1 245 2 260 45 260 29 0 43 -17 47 -60 3 -34 4 -35 51
-38 l47 -3 0 49 c0 55 -29 108 -70 129 -38 20 -120 16 -157 -7z"/>
<path d="M6655 2428 c-2 -13 -12 -75 -20 -138 -18 -133 -42 -291 -55 -370 -5
-30 -12 -81 -15 -112 l-6 -58 50 0 49 0 13 90 12 90 47 0 47 0 7 -67 c12 -114
11 -113 67 -113 29 0 49 4 49 11 0 22 -70 546 -83 614 l-12 70 -72 3 c-68 3
-73 2 -78 -20z m109 -380 c5 -26 3 -28 -30 -28 l-36 0 7 58 c3 31 8 73 9 92 2
19 7 53 12 75 7 37 9 31 21 -65 6 -58 14 -117 17 -132z"/>
<path d="M6875 2431 c-3 -11 -3 -31 1 -45 6 -24 11 -26 55 -26 l49 0 0 -92 c1
-368 4 -504 11 -514 5 -6 26 -8 51 -5 l43 6 3 302 2 302 48 3 47 3 0 40 0 40
-152 3 c-142 2 -152 1 -158 -17z"/>
<path d="M7463 2428 c-32 -23 -63 -80 -63 -117 0 -46 42 -145 95 -226 80 -121
110 -191 99 -224 -18 -51 -84 -35 -84 19 0 52 -8 60 -60 60 -56 0 -62 -8 -49
-74 17 -94 71 -132 175 -124 57 5 69 14 99 75 36 75 11 159 -97 325 -73 112
-93 173 -68 203 15 18 54 20 68 2 6 -6 12 -28 14 -47 3 -34 5 -35 47 -38 53
-4 64 8 55 63 -13 86 -59 125 -146 125 -39 0 -62 -6 -85 -22z"/>
<path d="M7767 2443 c-4 -3 -7 -161 -7 -350 l1 -343 48 0 c35 0 51 4 55 16 3
9 6 78 6 155 l0 139 45 0 45 0 0 -155 0 -155 49 0 c48 0 48 0 54 38 9 65 7
611 -3 637 -8 22 -16 25 -55 25 l-45 0 0 -145 0 -145 -45 0 c-29 0 -45 4 -46
13 0 6 0 64 1 127 1 64 -2 124 -6 133 -4 12 -18 17 -48 17 -24 0 -46 -3 -49
-7z"/>
<path d="M8194 2431 c-54 -33 -59 -59 -59 -336 0 -287 3 -302 78 -336 79 -35
169 -15 208 48 21 34 22 45 20 272 -1 130 -5 247 -8 261 -12 49 -35 82 -68 96
-49 20 -133 18 -171 -5z m120 -77 c13 -13 16 -45 17 -187 1 -95 3 -197 5 -227
7 -87 0 -102 -44 -98 l-37 3 -7 90 c-9 115 -11 386 -3 407 6 15 19 22 47 27 4
0 14 -6 22 -15z"/>
<path d="M8486 2441 c-6 -9 12 -170 49 -456 9 -66 19 -144 23 -174 6 -50 10
-55 37 -63 31 -8 102 -1 110 12 2 4 10 71 16 149 7 77 15 141 19 141 4 0 10
-53 14 -117 4 -65 10 -134 15 -153 l7 -35 69 0 70 0 7 50 c4 28 17 140 28 250
12 110 27 244 34 299 14 110 14 109 -50 104 -50 -4 -47 9 -74 -308 -16 -187
-23 -213 -31 -115 -11 145 -41 409 -45 417 -7 11 -82 10 -88 -1 -7 -12 -33
-243 -42 -381 -8 -111 -17 -108 -29 10 -3 30 -14 127 -23 215 l-17 160 -47 3
c-25 2 -49 -1 -52 -7z"/>
<path d="M9092 2430 c-61 -37 -80 -135 -42 -218 11 -24 44 -80 74 -125 89
-135 115 -201 96 -237 -12 -22 -49 -27 -68 -8 -7 7 -12 24 -12 39 0 51 -9 59
-60 59 -57 0 -66 -14 -51 -79 20 -91 72 -126 175 -119 51 4 62 9 83 34 13 16
28 47 34 69 20 70 -8 139 -132 327 -72 110 -78 188 -14 188 29 0 43 -17 47
-60 3 -34 5 -35 47 -38 24 -2 48 1 53 6 6 6 6 30 2 58 -5 38 -15 58 -44 87
-35 34 -42 37 -96 37 -42 0 -69 -6 -92 -20z"/>
</g>
</svg>
